HIERARCHY
ROOT Root
{
	OFFSET 0.00000 0.00000 0.00000
	CHANNELS 6 Xposition Yposition Zposition Zrotation Xrotation Yrotation
	JOINT Hip
	{
		OFFSET 0 0 0	
		CHANNELS 3 Zrotation Xrotation Yrotation
		JOINT Tummy
		{
			OFFSET 0 0.04 0	
			CHANNELS 3 Zrotation Xrotation Yrotation
			JOINT ChestBottom
			{
				OFFSET 0 0.194 0	
				CHANNELS 3 Zrotation Xrotation Yrotation
				JOINT ChestTop
				{
					OFFSET 0 0.166 0	
					CHANNELS 3 Zrotation Xrotation Yrotation
					JOINT LeftCollar
					{
						OFFSET 0 0.1 0	
						CHANNELS 3 Zrotation Xrotation Yrotation
						JOINT LeftUpperArm
						{
							OFFSET 0.156 -0.02 0.03	
							CHANNELS 3 Zrotation Xrotation Yrotation
							JOINT LeftForeArm
							{
								OFFSET 0.035 -0.27 -0.01	
								CHANNELS 3 Zrotation Xrotation Yrotation
								JOINT LeftHand
								{
									OFFSET 0.01 -0.27 0.01	
									CHANNELS 3 Zrotation Xrotation Yrotation
									End Site
									{
										OFFSET 0 -0.15 0
									}
								}
							}
						}
					}
					JOINT RightCollar
					{
						OFFSET 0 0.1 0	
						CHANNELS 3 Zrotation Xrotation Yrotation
						JOINT RightUpperArm
						{
							OFFSET -0.156 -0.02 0.03	
							CHANNELS 3 Zrotation Xrotation Yrotation
							JOINT RightForeArm
							{
								OFFSET -0.035 -0.27 -0.01	
								CHANNELS 3 Zrotation Xrotation Yrotation
								JOINT RightHand
								{
									OFFSET -0.01 -0.27 0.01	
									CHANNELS 3 Zrotation Xrotation Yrotation
									End Site
									{
										OFFSET 0 -0.15 0
									}
								}
							}
						}
					}
					JOINT Neck
					{
						OFFSET 0 0.1 0	
						CHANNELS 3 Zrotation Xrotation Yrotation
						JOINT Head
						{
							OFFSET 0 0.127 0.03	
							CHANNELS 3 Zrotation Xrotation Yrotation
							End Site
							{
								OFFSET 0 0.127 0.03
							}
						}
					}
				}
			}
		}
	}
	JOINT LeftHip
	{
		OFFSET 0 0 0	
		CHANNELS 3 Zrotation Xrotation Yrotation
		JOINT LeftThigh
		{
			OFFSET 0.088 -0.06 0	
			CHANNELS 3 Zrotation Xrotation Yrotation
			JOINT LeftLowerLeg
			{
				OFFSET 0 -0.39 0.02	
				CHANNELS 3 Zrotation Xrotation Yrotation
				JOINT LeftFootTop
				{
					OFFSET 0 -0.43 -0.02	
					CHANNELS 3 Zrotation Xrotation Yrotation
					JOINT LeftFootFront
					{
						OFFSET 0 -0.07 0.085	
						CHANNELS 3 Zrotation Xrotation Yrotation
						End Site
						{
							OFFSET 0 -0.005 0.09
						}
					}
				}
				JOINT LeftHeel
				{
					OFFSET 0 -0.43 -0.02	
					CHANNELS 3 Zrotation Xrotation Yrotation
					End Site
					{
						OFFSET 0 -0.075 -0.05
					}
				}
			}
		}
	}
	JOINT RightHip
	{
		OFFSET 0 0 0	
		CHANNELS 3 Zrotation Xrotation Yrotation
		JOINT RightThigh
		{
			OFFSET -0.088 -0.06 0	
			CHANNELS 3 Zrotation Xrotation Yrotation
			JOINT RightLowerLeg
			{
				OFFSET 0 -0.39 0.02	
				CHANNELS 3 Zrotation Xrotation Yrotation
				JOINT RightFootTop
				{
					OFFSET 0 -0.43 -0.02	
					CHANNELS 3 Zrotation Xrotation Yrotation
					JOINT RightFootFront
					{
						OFFSET 0 -0.07 0.085	
						CHANNELS 3 Zrotation Xrotation Yrotation
						End Site
						{
							OFFSET 0 -0.005 0.09
						}
					}
				}
				JOINT RightHeel
				{
					OFFSET 0 -0.43 -0.02	
					CHANNELS 3 Zrotation Xrotation Yrotation
					End Site
					{
						OFFSET 0 -0.075 -0.05
					}
				}
			}
		}
	}
}
MOTION
Frames: 23
Frame Time: 0.025
0 0.955 0 -0 0 -0 -0 0 -0 -0 0 -0 -7.2348 12.263 15.496 -0 0 -0 -0 0 -0 12.329 -22.805 21.507 18.33 -47.647 -7.6711 -0 0 -0 -0 0 -0 22.089 -50.971 25.271 123.42 -7.4814 -10.738 -0 0 -0 -0 0 -0 -0 0 -0 -0 0 -0 -0 0 -0 -0 0 -0 -0 0 -0 -0 0 -0 -0 0 -0 -0 0 -0 -0 0 -0 -0 0 -0 -0 0 -0 -0 0 -0 -0 0 -0 
0 0.955 0 -0 0 -0 -0 0 -0 -0 0 -0 -7.2196 12.281 15.559 -0 0 -0 -0 0 -0 12.279 -22.789 21.392 18.361 -47.705 -7.6287 -0 0 -0 -0 0 -0 21.219 -50.812 24.695 122.92 -7.0978 -10.801 -0 0 -0 -0 0 -0 -0 0 -0 -0 0 -0 -0 0 -0 -0 0 -0 -0 0 -0 -0 0 -0 -0 0 -0 -0 0 -0 -0 0 -0 -0 0 -0 -0 0 -0 -0 0 -0 -0 0 -0 
0 0.955 0 -0 0 -0 -0 0 -0 -0 0 -0 -7.2069 12.316 15.625 -0 0 -0 -0 0 -0 12.232 -22.739 21.24 18.412 -47.805 -7.5575 -0 0 -0 -0 0 -0 20.113 -50.588 23.99 122.18 -6.5682 -10.921 -0 0 -0 -0 0 -0 -0 0 -0 -0 0 -0 -0 0 -0 -0 0 -0 -0 0 -0 -0 0 -0 -0 0 -0 -0 0 -0 -0 0 -0 -0 0 -0 -0 0 -0 -0 0 -0 -0 0 -0 
0 0.955 0 -0 0 -0 -0 0 -0 -0 0 -0 -7.2074 12.378 15.643 -0 0 -0 -0 0 -0 12.227 -22.654 21.133 18.464 -47.929 -7.4826 -0 0 -0 -0 0 -0 19.103 -50.318 23.428 121.4 -6.0019 -11.013 -0 0 -0 -0 0 -0 -0 0 -0 -0 0 -0 -0 0 -0 -0 0 -0 -0 0 -0 -0 0 -0 -0 0 -0 -0 0 -0 -0 0 -0 -0 0 -0 -0 0 -0 -0 0 -0 -0 0 -0 
0 0.955 0 -0 0 -0 -0 0 -0 -0 0 -0 -7.2122 12.465 15.593 -0 0 -0 -0 0 -0 12.266 -22.553 21.099 18.523 -48.048 -7.3929 -0 0 -0 -0 0 -0 18.313 -50.02 23.147 120.69 -5.4617 -11.037 -0 0 -0 -0 0 -0 -0 0 -0 -0 0 -0 -0 0 -0 -0 0 -0 -0 0 -0 -0 0 -0 -0 0 -0 -0 0 -0 -0 0 -0 -0 0 -0 -0 0 -0 -0 0 -0 -0 0 -0 
0 0.955 0 -0 0 -0 -0 0 -0 -0 0 -0 -7.2097 12.558 15.46 -0 0 -0 -0 0 -0 12.34 -22.449 21.139 18.614 -48.125 -7.2571 -0 0 -0 -0 0 -0 18.036 -49.871 23.236 119.97 -4.9965 -11.225 -0 0 -0 -0 0 -0 -0 0 -0 -0 0 -0 -0 0 -0 -0 0 -0 -0 0 -0 -0 0 -0 -0 0 -0 -0 0 -0 -0 0 -0 -0 0 -0 -0 0 -0 -0 0 -0 -0 0 -0 
0 0.955 0 -0 0 -0 -0 0 -0 -0 0 -0 -7.1959 12.625 15.255 -0 0 -0 -0 0 -0 12.434 -22.347 21.254 18.734 -48.146 -7.0902 -0 0 -0 -0 0 -0 18.084 -49.8 23.517 119.35 -4.6032 -11.48 -0 0 -0 -0 0 -0 -0 0 -0 -0 0 -0 -0 0 -0 -0 0 -0 -0 0 -0 -0 0 -0 -0 0 -0 -0 0 -0 -0 0 -0 -0 0 -0 -0 0 -0 -0 0 -0 -0 0 -0 
0 0.955 0 -0 0 -0 -0 0 -0 -0 0 -0 -7.1773 12.658 15.02 -0 0 -0 -0 0 -0 12.523 -22.264 21.423 18.871 -48.121 -6.9249 -0 0 -0 -0 0 -0 18.21 -49.687 23.878 118.91 -4.3123 -11.606 -0 0 -0 -0 0 -0 -0 0 -0 -0 0 -0 -0 0 -0 -0 0 -0 -0 0 -0 -0 0 -0 -0 0 -0 -0 0 -0 -0 0 -0 -0 0 -0 -0 0 -0 -0 0 -0 -0 0 -0 
0 0.955 0 -0 0 -0 -0 0 -0 -0 0 -0 -7.1666 12.672 14.813 -0 0 -0 -0 0 -0 12.589 -22.229 21.592 19.021 -48.071 -6.7731 -0 0 -0 -0 0 -0 18.284 -49.505 24.237 118.69 -4.1071 -11.534 -0 0 -0 -0 0 -0 -0 0 -0 -0 0 -0 -0 0 -0 -0 0 -0 -0 0 -0 -0 0 -0 -0 0 -0 -0 0 -0 -0 0 -0 -0 0 -0 -0 0 -0 -0 0 -0 -0 0 -0 
0 0.955 0 -0 0 -0 -0 0 -0 -0 0 -0 -7.1669 12.684 14.692 -0 0 -0 -0 0 -0 12.613 -22.254 21.705 19.176 -48.021 -6.6465 -0 0 -0 -0 0 -0 18.176 -49.245 24.477 118.68 -3.9442 -11.25 -0 0 -0 -0 0 -0 -0 0 -0 -0 0 -0 -0 0 -0 -0 0 -0 -0 0 -0 -0 0 -0 -0 0 -0 -0 0 -0 -0 0 -0 -0 0 -0 -0 0 -0 -0 0 -0 -0 0 -0 
0 0.955 0 -0 0 -0 -0 0 -0 -0 0 -0 -7.1788 12.699 14.674 -0 0 -0 -0 0 -0 12.59 -22.322 21.753 19.317 -48.003 -6.5626 -0 0 -0 -0 0 -0 17.796 -48.882 24.515 118.83 -3.7923 -10.766 -0 0 -0 -0 0 -0 -0 0 -0 -0 0 -0 -0 0 -0 -0 0 -0 -0 0 -0 -0 0 -0 -0 0 -0 -0 0 -0 -0 0 -0 -0 0 -0 -0 0 -0 -0 0 -0 -0 0 -0 
0 0.955 0 -0 0 -0 -0 0 -0 -0 0 -0 -7.2051 12.713 14.737 -0 0 -0 -0 0 -0 12.537 -22.411 21.762 19.422 -48.03 -6.5274 -0 0 -0 -0 0 -0 17.107 -48.421 24.227 119.08 -3.5716 -10.178 -0 0 -0 -0 0 -0 -0 0 -0 -0 0 -0 -0 0 -0 -0 0 -0 -0 0 -0 -0 0 -0 -0 0 -0 -0 0 -0 -0 0 -0 -0 0 -0 -0 0 -0 -0 0 -0 -0 0 -0 
0 0.955 0 -0 0 -0 -0 0 -0 -0 0 -0 -7.2465 12.719 14.85 -0 0 -0 -0 0 -0 12.473 -22.505 21.747 19.496 -48.091 -6.5266 -0 0 -0 -0 0 -0 16.116 -47.838 23.486 119.37 -3.1662 -9.5825 -0 0 -0 -0 0 -0 -0 0 -0 -0 0 -0 -0 0 -0 -0 0 -0 -0 0 -0 -0 0 -0 -0 0 -0 -0 0 -0 -0 0 -0 -0 0 -0 -0 0 -0 -0 0 -0 -0 0 -0 
0 0.955 0 -0 0 -0 -0 0 -0 -0 0 -0 -7.3024 12.708 14.988 -0 0 -0 -0 0 -0 12.411 -22.603 21.714 19.553 -48.162 -6.5478 -0 0 -0 -0 0 -0 14.934 -47.093 22.307 119.57 -2.5239 -9.0351 -0 0 -0 -0 0 -0 -0 0 -0 -0 0 -0 -0 0 -0 -0 0 -0 -0 0 -0 -0 0 -0 -0 0 -0 -0 0 -0 -0 0 -0 -0 0 -0 -0 0 -0 -0 0 -0 -0 0 -0 
0 0.955 0 -0 0 -0 -0 0 -0 -0 0 -0 -7.3712 12.688 15.143 -0 0 -0 -0 0 -0 12.349 -22.719 21.657 19.598 -48.225 -6.5845 -0 0 -0 -0 0 -0 13.667 -46.235 20.812 119.56 -1.7214 -8.6133 -0 0 -0 -0 0 -0 -0 0 -0 -0 0 -0 -0 0 -0 -0 0 -0 -0 0 -0 -0 0 -0 -0 0 -0 -0 0 -0 -0 0 -0 -0 0 -0 -0 0 -0 -0 0 -0 -0 0 -0 
0 0.955 0 -0 0 -0 -0 0 -0 -0 0 -0 -7.4443 12.68 15.33 -0 0 -0 -0 0 -0 12.263 -22.856 21.546 19.638 -48.286 -6.6243 -0 0 -0 -0 0 -0 12.324 -45.352 19.193 119.27 -0.99574 -8.3142 -0 0 -0 -0 0 -0 -0 0 -0 -0 0 -0 -0 0 -0 -0 0 -0 -0 0 -0 -0 0 -0 -0 0 -0 -0 0 -0 -0 0 -0 -0 0 -0 -0 0 -0 -0 0 -0 -0 0 -0 
0 0.955 0 -0 0 -0 -0 0 -0 -0 0 -0 -7.5131 12.698 15.547 -0 0 -0 -0 0 -0 12.147 -22.991 21.355 19.688 -48.364 -6.6446 -0 0 -0 -0 0 -0 10.921 -44.522 17.584 118.72 -0.50995 -8.1407 -0 0 -0 -0 0 -0 -0 0 -0 -0 0 -0 -0 0 -0 -0 0 -0 -0 0 -0 -0 0 -0 -0 0 -0 -0 0 -0 -0 0 -0 -0 0 -0 -0 0 -0 -0 0 -0 -0 0 -0 
0 0.955 0 -0 0 -0 -0 0 -0 -0 0 -0 -7.5751 12.751 15.761 -0 0 -0 -0 0 -0 12.024 -23.095 21.109 19.754 -48.471 -6.6256 -0 0 -0 -0 0 -0 9.5291 -43.782 15.999 117.9 -0.21245 -8.1499 -0 0 -0 -0 0 -0 -0 0 -0 -0 0 -0 -0 0 -0 -0 0 -0 -0 0 -0 -0 0 -0 -0 0 -0 -0 0 -0 -0 0 -0 -0 0 -0 -0 0 -0 -0 0 -0 -0 0 -0 
0 0.955 0 -0 0 -0 -0 0 -0 -0 0 -0 -7.6227 12.839 15.918 -0 0 -0 -0 0 -0 11.928 -23.149 20.867 19.814 -48.603 -6.5708 -0 0 -0 -0 0 -0 8.2153 -43.119 14.514 116.86 -0.042857 -8.2909 -0 0 -0 -0 0 -0 -0 0 -0 -0 0 -0 -0 0 -0 -0 0 -0 -0 0 -0 -0 0 -0 -0 0 -0 -0 0 -0 -0 0 -0 -0 0 -0 -0 0 -0 -0 0 -0 -0 0 -0 
0 0.955 0 -0 0 -0 -0 0 -0 -0 0 -0 -7.6485 12.951 15.985 -0 0 -0 -0 0 -0 11.88 -23.147 20.676 19.854 -48.744 -6.485 -0 0 -0 -0 0 -0 7.0138 -42.512 13.287 115.63 -0.03963 -8.431 -0 0 -0 -0 0 -0 -0 0 -0 -0 0 -0 -0 0 -0 -0 0 -0 -0 0 -0 -0 0 -0 -0 0 -0 -0 0 -0 -0 0 -0 -0 0 -0 -0 0 -0 -0 0 -0 -0 0 -0 
0 0.955 0 -0 0 -0 -0 0 -0 -0 0 -0 -7.6538 13.079 15.975 -0 0 -0 -0 0 -0 11.88 -23.111 20.523 19.897 -48.869 -6.341 -0 0 -0 -0 0 -0 5.911 -41.965 12.282 114.31 -0.16262 -8.5498 -0 0 -0 -0 0 -0 -0 0 -0 -0 0 -0 -0 0 -0 -0 0 -0 -0 0 -0 -0 0 -0 -0 0 -0 -0 0 -0 -0 0 -0 -0 0 -0 -0 0 -0 -0 0 -0 -0 0 -0 
0 0.955 0 -0 0 -0 -0 0 -0 -0 0 -0 -7.6465 13.208 15.924 -0 0 -0 -0 0 -0 11.919 -23.055 20.368 19.988 -48.962 -6.0945 -0 0 -0 -0 0 -0 4.8811 -41.472 11.387 112.98 -0.36528 -8.6427 -0 0 -0 -0 0 -0 -0 0 -0 -0 0 -0 -0 0 -0 -0 0 -0 -0 0 -0 -0 0 -0 -0 0 -0 -0 0 -0 -0 0 -0 -0 0 -0 -0 0 -0 -0 0 -0 -0 0 -0 
0 0.955 0 -0 0 -0 -0 0 -0 -0 0 -0 -7.6396 13.309 15.846 -0 0 -0 -0 0 -0 11.986 -22.981 20.24 20.116 -49.032 -5.796 -0 0 -0 -0 0 -0 3.932 -41.006 10.603 111.71 -0.63546 -8.6917 -0 0 -0 -0 0 -0 -0 0 -0 -0 0 -0 -0 0 -0 -0 0 -0 -0 0 -0 -0 0 -0 -0 0 -0 -0 0 -0 -0 0 -0 -0 0 -0 -0 0 -0 -0 0 -0 -0 0 -0 
